<?xml version="1.0" standalone="no"?>
<!DOCTYPE svg PUBLIC "-//W3C//DTD SVG 1.1//EN"
  "http://www.w3.org/Graphics/SVG/1.1/DTD/svg11.dtd">
<svg xmlns="http://www.w3.org/2000/svg" version="1.1"
     width="472px" height="268px" viewBox="-15 -104 472 278">
  <defs>
    <style type="text/css"><![CDATA[
      .markmap-node {
        cursor: pointer;
      }

      .markmap-node-circle {
        fill: #fff;
        stroke-width: 1.5px;
      }

      .markmap-node-text {
        fill:  #000;
        font: 10px sans-serif;
      }

      .markmap-link {
        fill: none;
      }
    ]]></style>
  </defs>
  <g><path class="markmap-link" stroke="#ff9896" stroke-width="1.5" d="M249.37890625,136.25C279.37890625,136.25 279.37890625,113.75 309.37890625,113.75"></path><path class="markmap-link" stroke="#ff9896" stroke-width="1.5" d="M249.37890625,136.25C279.37890625,136.25 279.37890625,128.75 309.37890625,128.75"></path><path class="markmap-link" stroke="#ff9896" stroke-width="1.5" d="M249.37890625,136.25C279.37890625,136.25 279.37890625,143.75 309.37890625,143.75"></path><path class="markmap-link" stroke="#ff9896" stroke-width="1.5" d="M249.37890625,136.25C279.37890625,136.25 279.37890625,158.75 309.37890625,158.75"></path><path class="markmap-link" stroke="#ff9896" stroke-width="1.5" d="M249.37890625,71.25C279.37890625,71.25 279.37890625,48.75 309.37890625,48.75"></path><path class="markmap-link" stroke="#ff9896" stroke-width="1.5" d="M249.37890625,71.25C279.37890625,71.25 279.37890625,63.75 309.37890625,63.75"></path><path class="markmap-link" stroke="#ff9896" stroke-width="1.5" d="M249.37890625,71.25C279.37890625,71.25 279.37890625,78.75 309.37890625,78.75"></path><path class="markmap-link" stroke="#ff9896" stroke-width="1.5" d="M249.37890625,71.25C279.37890625,71.25 279.37890625,93.75 309.37890625,93.75"></path><path class="markmap-link" stroke="#ff9896" stroke-width="1.5" d="M249.37890625,6.25C279.37890625,6.25 279.37890625,-16.25 309.37890625,-16.25"></path><path class="markmap-link" stroke="#ff9896" stroke-width="1.5" d="M249.37890625,6.25C279.37890625,6.25 279.37890625,-1.25 309.37890625,-1.25"></path><path class="markmap-link" stroke="#ff9896" stroke-width="1.5" d="M249.37890625,6.25C279.37890625,6.25 279.37890625,13.75 309.37890625,13.75"></path><path class="markmap-link" stroke="#ff9896" stroke-width="1.5" d="M249.37890625,6.25C279.37890625,6.25 279.37890625,28.75 309.37890625,28.75"></path><path class="markmap-link" stroke="#ff9896" stroke-width="1.5" d="M137.916015625,71.25C167.916015625,71.25 167.916015625,6.25 197.916015625,6.25"></path><path class="markmap-link" stroke="#ff9896" stroke-width="1.5" d="M137.916015625,71.25C167.916015625,71.25 167.916015625,71.25 197.916015625,71.25"></path><path class="markmap-link" stroke="#ff9896" stroke-width="1.5" d="M137.916015625,71.25C167.916015625,71.25 167.916015625,103.75 197.916015625,103.75"></path><path class="markmap-link" stroke="#ff9896" stroke-width="1.5" d="M137.916015625,71.25C167.916015625,71.25 167.916015625,136.25 197.916015625,136.25"></path><path class="markmap-link" stroke="#ff7f0e" stroke-width="1.5" d="M141.2705078125,-28.75C171.2705078125,-28.75 171.2705078125,-43.75 201.2705078125,-43.75"></path><path class="markmap-link" stroke="#ff7f0e" stroke-width="1.5" d="M141.2705078125,-28.75C171.2705078125,-28.75 171.2705078125,-28.75 201.2705078125,-28.75"></path><path class="markmap-link" stroke="#ff7f0e" stroke-width="1.5" d="M141.2705078125,-28.75C171.2705078125,-28.75 171.2705078125,-13.75 201.2705078125,-13.75"></path><path class="markmap-link" stroke="#1f77b4" stroke-width="1.5" d="M148.4921875,-71.25C178.4921875,-71.25 178.4921875,-78.75 208.4921875,-78.75"></path><path class="markmap-link" stroke="#1f77b4" stroke-width="1.5" d="M148.4921875,-71.25C178.4921875,-71.25 178.4921875,-63.75 208.4921875,-63.75"></path><path class="markmap-link" stroke="#1f77b4" stroke-width="2" d="M29.79296875,0C59.79296875,0 59.79296875,-71.25 89.79296875,-71.25"></path><path class="markmap-link" stroke="#ff7f0e" stroke-width="2" d="M29.79296875,0C59.79296875,0 59.79296875,-28.75 89.79296875,-28.75"></path><path class="markmap-link" stroke="#ff9896" stroke-width="2" d="M29.79296875,0C59.79296875,0 59.79296875,71.25 89.79296875,71.25"></path><g class="markmap-node" transform="translate(309.37890625,158.75)"><rect class="markmap-node-rect" y="-0.75" x="-1" width="85.69921875" height="1.5" fill="#ff9896"></rect><circle class="markmap-node-circle" cx="83.69921875" stroke="#ff9896" r="4.5" style="display: none;"></circle><text class="markmap-node-text" x="10" dy="-5" text-anchor="start" style="fill-opacity: 1;">Practice - dialog</text></g><g class="markmap-node" transform="translate(309.37890625,143.75)"><rect class="markmap-node-rect" y="-0.75" x="-1" width="134.6201171875" height="1.5" fill="#ff9896"></rect><circle class="markmap-node-circle" cx="132.6201171875" stroke="#ff9896" r="4.5" style="display: none;"></circle><text class="markmap-node-text" x="10" dy="-5" text-anchor="start" style="fill-opacity: 1;">Audio test - choose answer</text></g><g class="markmap-node" transform="translate(309.37890625,128.75)"><rect class="markmap-node-rect" y="-0.75" x="-1" width="65.6845703125" height="1.5" fill="#ff9896"></rect><circle class="markmap-node-circle" cx="63.6845703125" stroke="#ff9896" r="4.5" style="display: none;"></circle><text class="markmap-node-text" x="10" dy="-5" text-anchor="start" style="fill-opacity: 1;">Flash cards</text></g><g class="markmap-node" transform="translate(309.37890625,113.75)"><rect class="markmap-node-rect" y="-0.75" x="-1" width="75.7041015625" height="1.5" fill="#ff9896"></rect><circle class="markmap-node-circle" cx="73.7041015625" stroke="#ff9896" r="4.5" style="display: none;"></circle><text class="markmap-node-text" x="10" dy="-5" text-anchor="start" style="fill-opacity: 1;">Dialog - audio</text></g><g class="markmap-node" transform="translate(197.916015625,136.25)"><rect class="markmap-node-rect" y="-0.75" x="-1" width="53.462890625" height="1.5" fill="#ff9896"></rect><circle class="markmap-node-circle" cx="51.462890625" stroke="#ff9896" r="4.5"></circle><text class="markmap-node-text" x="10" dy="-5" text-anchor="start" style="fill-opacity: 1;">Theme n</text></g><g class="markmap-node" transform="translate(197.916015625,103.75)"><rect class="markmap-node-rect" y="-0.75" x="-1" width="22.3349609375" height="1.5" fill="#ff9896"></rect><circle class="markmap-node-circle" cx="20.3349609375" stroke="#ff9896" r="4.5" style="display: none;"></circle><text class="markmap-node-text" x="10" dy="-5" text-anchor="start" style="fill-opacity: 1;">...</text></g><g class="markmap-node" transform="translate(309.37890625,93.75)"><rect class="markmap-node-rect" y="-0.75" x="-1" width="85.69921875" height="1.5" fill="#ff9896"></rect><circle class="markmap-node-circle" cx="83.69921875" stroke="#ff9896" r="4.5" style="display: none;"></circle><text class="markmap-node-text" x="10" dy="-5" text-anchor="start" style="fill-opacity: 1;">Practice - dialog</text></g><g class="markmap-node" transform="translate(309.37890625,78.75)"><rect class="markmap-node-rect" y="-0.75" x="-1" width="134.6201171875" height="1.5" fill="#ff9896"></rect><circle class="markmap-node-circle" cx="132.6201171875" stroke="#ff9896" r="4.5" style="display: none;"></circle><text class="markmap-node-text" x="10" dy="-5" text-anchor="start" style="fill-opacity: 1;">Audio test - choose answer</text></g><g class="markmap-node" transform="translate(309.37890625,63.75)"><rect class="markmap-node-rect" y="-0.75" x="-1" width="65.6845703125" height="1.5" fill="#ff9896"></rect><circle class="markmap-node-circle" cx="63.6845703125" stroke="#ff9896" r="4.5" style="display: none;"></circle><text class="markmap-node-text" x="10" dy="-5" text-anchor="start" style="fill-opacity: 1;">Flash cards</text></g><g class="markmap-node" transform="translate(309.37890625,48.75)"><rect class="markmap-node-rect" y="-0.75" x="-1" width="75.7041015625" height="1.5" fill="#ff9896"></rect><circle class="markmap-node-circle" cx="73.7041015625" stroke="#ff9896" r="4.5" style="display: none;"></circle><text class="markmap-node-text" x="10" dy="-5" text-anchor="start" style="fill-opacity: 1;">Dialog - audio</text></g><g class="markmap-node" transform="translate(197.916015625,71.25)"><rect class="markmap-node-rect" y="-0.75" x="-1" width="53.462890625" height="1.5" fill="#ff9896"></rect><circle class="markmap-node-circle" cx="51.462890625" stroke="#ff9896" r="4.5"></circle><text class="markmap-node-text" x="10" dy="-5" text-anchor="start" style="fill-opacity: 1;">Theme 2</text></g><g class="markmap-node" transform="translate(309.37890625,28.75)"><rect class="markmap-node-rect" y="-0.75" x="-1" width="85.69921875" height="1.5" fill="#ff9896"></rect><circle class="markmap-node-circle" cx="83.69921875" stroke="#ff9896" r="4.5" style="display: none;"></circle><text class="markmap-node-text" x="10" dy="-5" text-anchor="start" style="fill-opacity: 1;">Practice - dialog</text></g><g class="markmap-node" transform="translate(309.37890625,13.75)"><rect class="markmap-node-rect" y="-0.75" x="-1" width="134.6201171875" height="1.5" fill="#ff9896"></rect><circle class="markmap-node-circle" cx="132.6201171875" stroke="#ff9896" r="4.5" style="display: none;"></circle><text class="markmap-node-text" x="10" dy="-5" text-anchor="start" style="fill-opacity: 1;">Audio test - choose answer</text></g><g class="markmap-node" transform="translate(309.37890625,-1.25)"><rect class="markmap-node-rect" y="-0.75" x="-1" width="65.6845703125" height="1.5" fill="#ff9896"></rect><circle class="markmap-node-circle" cx="63.6845703125" stroke="#ff9896" r="4.5" style="display: none;"></circle><text class="markmap-node-text" x="10" dy="-5" text-anchor="start" style="fill-opacity: 1;">Flash cards</text></g><g class="markmap-node" transform="translate(309.37890625,-16.25)"><rect class="markmap-node-rect" y="-0.75" x="-1" width="75.7041015625" height="1.5" fill="#ff9896"></rect><circle class="markmap-node-circle" cx="73.7041015625" stroke="#ff9896" r="4.5" style="display: none;"></circle><text class="markmap-node-text" x="10" dy="-5" text-anchor="start" style="fill-opacity: 1;">Dialog - audio</text></g><g class="markmap-node" transform="translate(197.916015625,6.25)"><rect class="markmap-node-rect" y="-0.75" x="-1" width="53.462890625" height="1.5" fill="#ff9896"></rect><circle class="markmap-node-circle" cx="51.462890625" stroke="#ff9896" r="4.5"></circle><text class="markmap-node-text" x="10" dy="-5" text-anchor="start" style="fill-opacity: 1;">Theme 1</text></g><g class="markmap-node" transform="translate(89.79296875,71.25)"><rect class="markmap-node-rect" y="-1" x="-1" width="50.123046875" height="2" fill="#ff9896"></rect><circle class="markmap-node-circle" cx="48.123046875" stroke="#ff9896" r="4.5"></circle><text class="markmap-node-text" x="10" dy="-5" text-anchor="start" style="fill-opacity: 1;">Themes</text></g><g class="markmap-node" transform="translate(201.2705078125,-13.75)"><rect class="markmap-node-rect" y="-0.75" x="-1" width="82.7255859375" height="1.5" fill="#ff7f0e"></rect><circle class="markmap-node-circle" cx="80.7255859375" stroke="#ff7f0e" r="4.5" style="display: none;"></circle><text class="markmap-node-text" x="10" dy="-5" text-anchor="start" style="fill-opacity: 1;">Writing practice</text></g><g class="markmap-node" transform="translate(201.2705078125,-28.75)"><rect class="markmap-node-rect" y="-0.75" x="-1" width="72.92578125" height="1.5" fill="#ff7f0e"></rect><circle class="markmap-node-circle" cx="70.92578125" stroke="#ff7f0e" r="4.5" style="display: none;"></circle><text class="markmap-node-text" x="10" dy="-5" text-anchor="start" style="fill-opacity: 1;">Listening test</text></g><g class="markmap-node" transform="translate(201.2705078125,-43.75)"><rect class="markmap-node-rect" y="-0.75" x="-1" width="99.615234375" height="1.5" fill="#ff7f0e"></rect><circle class="markmap-node-circle" cx="97.615234375" stroke="#ff7f0e" r="4.5" style="display: none;"></circle><text class="markmap-node-text" x="10" dy="-5" text-anchor="start" style="fill-opacity: 1;">Pronunciation table</text></g><g class="markmap-node" transform="translate(89.79296875,-28.75)"><rect class="markmap-node-rect" y="-1" x="-1" width="53.4775390625" height="2" fill="#ff7f0e"></rect><circle class="markmap-node-circle" cx="51.4775390625" stroke="#ff7f0e" r="4.5"></circle><text class="markmap-node-text" x="10" dy="-5" text-anchor="start" style="fill-opacity: 1;">Alphabet</text></g><g class="markmap-node" transform="translate(208.4921875,-63.75)"><rect class="markmap-node-rect" y="-0.75" x="-1" width="64.0244140625" height="1.5" fill="#1f77b4"></rect><circle class="markmap-node-circle" cx="62.0244140625" stroke="#1f77b4" r="4.5" style="display: none;"></circle><text class="markmap-node-text" x="10" dy="-5" text-anchor="start" style="fill-opacity: 1;">How to use</text></g><g class="markmap-node" transform="translate(208.4921875,-78.75)"><rect class="markmap-node-rect" y="-0.75" x="-1" width="59.595703125" height="1.5" fill="#1f77b4"></rect><circle class="markmap-node-circle" cx="57.595703125" stroke="#1f77b4" r="4.5" style="display: none;"></circle><text class="markmap-node-text" x="10" dy="-5" text-anchor="start" style="fill-opacity: 1;">About app</text></g><g class="markmap-node" transform="translate(89.79296875,-71.25)"><rect class="markmap-node-rect" y="-1" x="-1" width="60.69921875" height="2" fill="#1f77b4"></rect><circle class="markmap-node-circle" cx="58.69921875" stroke="#1f77b4" r="4.5"></circle><text class="markmap-node-text" x="10" dy="-5" text-anchor="start" style="fill-opacity: 1;">Main page</text></g><g class="markmap-node" transform="translate(0,0)"><rect class="markmap-node-rect" y="-3" x="-1" width="31.79296875" height="6" fill="#aec7e8"></rect><circle class="markmap-node-circle" cx="29.79296875" stroke="#aec7e8" r="4.5"></circle><text class="markmap-node-text" x="10" dy="-5" text-anchor="start" style="fill-opacity: 1;">App</text></g></g>
</svg>