<?xml version="1.0" standalone="no"?>
<!DOCTYPE svg PUBLIC "-//W3C//DTD SVG 1.1//EN"
  "http://www.w3.org/Graphics/SVG/1.1/DTD/svg11.dtd">
<svg xmlns="http://www.w3.org/2000/svg" version="1.1"
     width="576px" height="313px" viewBox="-15 -161 576 323">
  <defs>
    <style type="text/css"><![CDATA[
      .markmap-node {
        cursor: pointer;
      }

      .markmap-node-circle {
        fill: #fff;
        stroke-width: 1.5px;
      }

      .markmap-node-text {
        fill:  #000;
        font: 10px sans-serif;
      }

      .markmap-link {
        fill: none;
      }
    ]]></style>
  </defs>
  <g><path class="markmap-link" stroke="#98df8a" stroke-width="1.5" d="M320.51171875,124.375C350.51171875,124.375 350.51171875,101.875 380.51171875,101.875"></path><path class="markmap-link" stroke="#98df8a" stroke-width="1.5" d="M320.51171875,124.375C350.51171875,124.375 350.51171875,116.875 380.51171875,116.875"></path><path class="markmap-link" stroke="#98df8a" stroke-width="1.5" d="M320.51171875,124.375C350.51171875,124.375 350.51171875,131.875 380.51171875,131.875"></path><path class="markmap-link" stroke="#98df8a" stroke-width="1.5" d="M320.51171875,124.375C350.51171875,124.375 350.51171875,146.875 380.51171875,146.875"></path><path class="markmap-link" stroke="#98df8a" stroke-width="1.5" d="M207.3837890625,124.375C237.3837890625,124.375 237.3837890625,124.375 267.3837890625,124.375"></path><path class="markmap-link" stroke="#2ca02c" stroke-width="1.5" d="M354.0517578125,59.375C384.0517578125,59.375 384.0517578125,36.875 414.0517578125,36.875"></path><path class="markmap-link" stroke="#2ca02c" stroke-width="1.5" d="M354.0517578125,59.375C384.0517578125,59.375 384.0517578125,51.875 414.0517578125,51.875"></path><path class="markmap-link" stroke="#2ca02c" stroke-width="1.5" d="M354.0517578125,59.375C384.0517578125,59.375 384.0517578125,66.875 414.0517578125,66.875"></path><path class="markmap-link" stroke="#2ca02c" stroke-width="1.5" d="M354.0517578125,59.375C384.0517578125,59.375 384.0517578125,81.875 414.0517578125,81.875"></path><path class="markmap-link" stroke="#2ca02c" stroke-width="1.5" d="M216.8369140625,59.375C246.8369140625,59.375 246.8369140625,59.375 276.8369140625,59.375"></path><path class="markmap-link" stroke="#ffbb78" stroke-width="1.5" d="M312.162109375,-5.625C342.162109375,-5.625 342.162109375,-28.125 372.162109375,-28.125"></path><path class="markmap-link" stroke="#ffbb78" stroke-width="1.5" d="M312.162109375,-5.625C342.162109375,-5.625 342.162109375,-13.125 372.162109375,-13.125"></path><path class="markmap-link" stroke="#ffbb78" stroke-width="1.5" d="M312.162109375,-5.625C342.162109375,-5.625 342.162109375,1.875 372.162109375,1.875"></path><path class="markmap-link" stroke="#ffbb78" stroke-width="1.5" d="M312.162109375,-5.625C342.162109375,-5.625 342.162109375,16.875 372.162109375,16.875"></path><path class="markmap-link" stroke="#ffbb78" stroke-width="1.5" d="M210.71875,-5.625C240.71875,-5.625 240.71875,-5.625 270.71875,-5.625"></path><path class="markmap-link" stroke="#ff7f0e" stroke-width="1.5" d="M408.9248046875,-48.125C438.9248046875,-48.125 438.9248046875,-70.625 468.9248046875,-70.625"></path><path class="markmap-link" stroke="#ff7f0e" stroke-width="1.5" d="M408.9248046875,-48.125C438.9248046875,-48.125 438.9248046875,-55.625 468.9248046875,-55.625"></path><path class="markmap-link" stroke="#ff7f0e" stroke-width="1.5" d="M408.9248046875,-48.125C438.9248046875,-48.125 438.9248046875,-40.625 468.9248046875,-40.625"></path><path class="markmap-link" stroke="#ff7f0e" stroke-width="1.5" d="M408.9248046875,-48.125C438.9248046875,-48.125 438.9248046875,-25.625 468.9248046875,-25.625"></path><path class="markmap-link" stroke="#ff7f0e" stroke-width="1.5" d="M221.8515625,-48.125C251.8515625,-48.125 251.8515625,-48.125 281.8515625,-48.125"></path><path class="markmap-link" stroke="#aec7e8" stroke-width="1.5" d="M373.8857421875,-113.125C403.8857421875,-113.125 403.8857421875,-135.625 433.8857421875,-135.625"></path><path class="markmap-link" stroke="#aec7e8" stroke-width="1.5" d="M373.8857421875,-113.125C403.8857421875,-113.125 403.8857421875,-120.625 433.8857421875,-120.625"></path><path class="markmap-link" stroke="#aec7e8" stroke-width="1.5" d="M373.8857421875,-113.125C403.8857421875,-113.125 403.8857421875,-105.625 433.8857421875,-105.625"></path><path class="markmap-link" stroke="#aec7e8" stroke-width="1.5" d="M373.8857421875,-113.125C403.8857421875,-113.125 403.8857421875,-90.625 433.8857421875,-90.625"></path><path class="markmap-link" stroke="#aec7e8" stroke-width="1.5" d="M207.3740234375,-124.375C237.3740234375,-124.375 237.3740234375,-135.625 267.3740234375,-135.625"></path><path class="markmap-link" stroke="#aec7e8" stroke-width="1.5" d="M207.3740234375,-124.375C237.3740234375,-124.375 237.3740234375,-113.125 267.3740234375,-113.125"></path><path class="markmap-link" stroke="#aec7e8" stroke-width="2" d="M89.8125,0C119.8125,0 119.8125,-124.375 149.8125,-124.375"></path><path class="markmap-link" stroke="#ff7f0e" stroke-width="2" d="M89.8125,0C119.8125,0 119.8125,-48.125 149.8125,-48.125"></path><path class="markmap-link" stroke="#ffbb78" stroke-width="2" d="M89.8125,0C119.8125,0 119.8125,-5.625 149.8125,-5.625"></path><path class="markmap-link" stroke="#2ca02c" stroke-width="2" d="M89.8125,0C119.8125,0 119.8125,59.375 149.8125,59.375"></path><path class="markmap-link" stroke="#98df8a" stroke-width="2" d="M89.8125,0C119.8125,0 119.8125,124.375 149.8125,124.375"></path><g class="markmap-node" transform="translate(380.51171875,146.875)"><rect class="markmap-node-rect" y="-0.75" x="-1" width="79.0341796875" height="1.5" fill="#98df8a"></rect><circle class="markmap-node-circle" cx="77.0341796875" stroke="#98df8a" r="4.5" style="display: none;"></circle><text class="markmap-node-text" x="10" dy="-5" text-anchor="start" style="fill-opacity: 1;">Graded Quiz 4</text></g><g class="markmap-node" transform="translate(380.51171875,131.875)"><rect class="markmap-node-rect" y="-0.75" x="-1" width="79.0341796875" height="1.5" fill="#98df8a"></rect><circle class="markmap-node-circle" cx="77.0341796875" stroke="#98df8a" r="4.5" style="display: none;"></circle><text class="markmap-node-text" x="10" dy="-5" text-anchor="start" style="fill-opacity: 1;">Graded Quiz 3</text></g><g class="markmap-node" transform="translate(380.51171875,116.875)"><rect class="markmap-node-rect" y="-0.75" x="-1" width="79.0341796875" height="1.5" fill="#98df8a"></rect><circle class="markmap-node-circle" cx="77.0341796875" stroke="#98df8a" r="4.5" style="display: none;"></circle><text class="markmap-node-text" x="10" dy="-5" text-anchor="start" style="fill-opacity: 1;">Graded Quiz 2</text></g><g class="markmap-node" transform="translate(380.51171875,101.875)"><rect class="markmap-node-rect" y="-0.75" x="-1" width="79.0341796875" height="1.5" fill="#98df8a"></rect><circle class="markmap-node-circle" cx="77.0341796875" stroke="#98df8a" r="4.5" style="display: none;"></circle><text class="markmap-node-text" x="10" dy="-5" text-anchor="start" style="fill-opacity: 1;">Graded Quiz 1</text></g><g class="markmap-node" transform="translate(267.3837890625,124.375)"><rect class="markmap-node-rect" y="-0.75" x="-1" width="55.1279296875" height="1.5" fill="#98df8a"></rect><circle class="markmap-node-circle" cx="53.1279296875" stroke="#98df8a" r="4.5"></circle><text class="markmap-node-text" x="10" dy="-5" text-anchor="start" style="fill-opacity: 1;">Daily Life</text></g><g class="markmap-node" transform="translate(149.8125,124.375)"><rect class="markmap-node-rect" y="-1" x="-1" width="59.5712890625" height="2" fill="#98df8a"></rect><circle class="markmap-node-circle" cx="57.5712890625" stroke="#98df8a" r="4.5"></circle><text class="markmap-node-text" x="10" dy="-5" text-anchor="start" style="fill-opacity: 1;">Fifth week</text></g><g class="markmap-node" transform="translate(414.0517578125,81.875)"><rect class="markmap-node-rect" y="-0.75" x="-1" width="79.0341796875" height="1.5" fill="#2ca02c"></rect><circle class="markmap-node-circle" cx="77.0341796875" stroke="#2ca02c" r="4.5" style="display: none;"></circle><text class="markmap-node-text" x="10" dy="-5" text-anchor="start" style="fill-opacity: 1;">Graded Quiz 4</text></g><g class="markmap-node" transform="translate(414.0517578125,66.875)"><rect class="markmap-node-rect" y="-0.75" x="-1" width="79.0341796875" height="1.5" fill="#2ca02c"></rect><circle class="markmap-node-circle" cx="77.0341796875" stroke="#2ca02c" r="4.5" style="display: none;"></circle><text class="markmap-node-text" x="10" dy="-5" text-anchor="start" style="fill-opacity: 1;">Graded Quiz 3</text></g><g class="markmap-node" transform="translate(414.0517578125,51.875)"><rect class="markmap-node-rect" y="-0.75" x="-1" width="79.0341796875" height="1.5" fill="#2ca02c"></rect><circle class="markmap-node-circle" cx="77.0341796875" stroke="#2ca02c" r="4.5" style="display: none;"></circle><text class="markmap-node-text" x="10" dy="-5" text-anchor="start" style="fill-opacity: 1;">Graded Quiz 2</text></g><g class="markmap-node" transform="translate(414.0517578125,36.875)"><rect class="markmap-node-rect" y="-0.75" x="-1" width="79.0341796875" height="1.5" fill="#2ca02c"></rect><circle class="markmap-node-circle" cx="77.0341796875" stroke="#2ca02c" r="4.5" style="display: none;"></circle><text class="markmap-node-text" x="10" dy="-5" text-anchor="start" style="fill-opacity: 1;">Graded Quiz 1</text></g><g class="markmap-node" transform="translate(276.8369140625,59.375)"><rect class="markmap-node-rect" y="-0.75" x="-1" width="79.21484375" height="1.5" fill="#2ca02c"></rect><circle class="markmap-node-circle" cx="77.21484375" stroke="#2ca02c" r="4.5"></circle><text class="markmap-node-text" x="10" dy="-5" text-anchor="start" style="fill-opacity: 1;">Time and Date</text></g><g class="markmap-node" transform="translate(149.8125,59.375)"><rect class="markmap-node-rect" y="-1" x="-1" width="69.0244140625" height="2" fill="#2ca02c"></rect><circle class="markmap-node-circle" cx="67.0244140625" stroke="#2ca02c" r="4.5"></circle><text class="markmap-node-text" x="10" dy="-5" text-anchor="start" style="fill-opacity: 1;">Fourth week</text></g><g class="markmap-node" transform="translate(372.162109375,16.875)"><rect class="markmap-node-rect" y="-0.75" x="-1" width="79.0341796875" height="1.5" fill="#ffbb78"></rect><circle class="markmap-node-circle" cx="77.0341796875" stroke="#ffbb78" r="4.5" style="display: none;"></circle><text class="markmap-node-text" x="10" dy="-5" text-anchor="start" style="fill-opacity: 1;">Graded Quiz 4</text></g><g class="markmap-node" transform="translate(372.162109375,1.875)"><rect class="markmap-node-rect" y="-0.75" x="-1" width="79.0341796875" height="1.5" fill="#ffbb78"></rect><circle class="markmap-node-circle" cx="77.0341796875" stroke="#ffbb78" r="4.5" style="display: none;"></circle><text class="markmap-node-text" x="10" dy="-5" text-anchor="start" style="fill-opacity: 1;">Graded Quiz 3</text></g><g class="markmap-node" transform="translate(372.162109375,-13.125)"><rect class="markmap-node-rect" y="-0.75" x="-1" width="79.0341796875" height="1.5" fill="#ffbb78"></rect><circle class="markmap-node-circle" cx="77.0341796875" stroke="#ffbb78" r="4.5" style="display: none;"></circle><text class="markmap-node-text" x="10" dy="-5" text-anchor="start" style="fill-opacity: 1;">Graded Quiz 2</text></g><g class="markmap-node" transform="translate(372.162109375,-28.125)"><rect class="markmap-node-rect" y="-0.75" x="-1" width="79.0341796875" height="1.5" fill="#ffbb78"></rect><circle class="markmap-node-circle" cx="77.0341796875" stroke="#ffbb78" r="4.5" style="display: none;"></circle><text class="markmap-node-text" x="10" dy="-5" text-anchor="start" style="fill-opacity: 1;">Graded Quiz 1</text></g><g class="markmap-node" transform="translate(270.71875,-5.625)"><rect class="markmap-node-rect" y="-0.75" x="-1" width="43.443359375" height="1.5" fill="#ffbb78"></rect><circle class="markmap-node-circle" cx="41.443359375" stroke="#ffbb78" r="4.5"></circle><text class="markmap-node-text" x="10" dy="-5" text-anchor="start" style="fill-opacity: 1;">Family</text></g><g class="markmap-node" transform="translate(149.8125,-5.625)"><rect class="markmap-node-rect" y="-1" x="-1" width="62.90625" height="2" fill="#ffbb78"></rect><circle class="markmap-node-circle" cx="60.90625" stroke="#ffbb78" r="4.5"></circle><text class="markmap-node-text" x="10" dy="-5" text-anchor="start" style="fill-opacity: 1;">Third week</text></g><g class="markmap-node" transform="translate(468.9248046875,-25.625)"><rect class="markmap-node-rect" y="-0.75" x="-1" width="79.0341796875" height="1.5" fill="#ff7f0e"></rect><circle class="markmap-node-circle" cx="77.0341796875" stroke="#ff7f0e" r="4.5" style="display: none;"></circle><text class="markmap-node-text" x="10" dy="-5" text-anchor="start" style="fill-opacity: 1;">Graded Quiz 4</text></g><g class="markmap-node" transform="translate(468.9248046875,-40.625)"><rect class="markmap-node-rect" y="-0.75" x="-1" width="79.0341796875" height="1.5" fill="#ff7f0e"></rect><circle class="markmap-node-circle" cx="77.0341796875" stroke="#ff7f0e" r="4.5" style="display: none;"></circle><text class="markmap-node-text" x="10" dy="-5" text-anchor="start" style="fill-opacity: 1;">Graded Quiz 3</text></g><g class="markmap-node" transform="translate(468.9248046875,-55.625)"><rect class="markmap-node-rect" y="-0.75" x="-1" width="79.0341796875" height="1.5" fill="#ff7f0e"></rect><circle class="markmap-node-circle" cx="77.0341796875" stroke="#ff7f0e" r="4.5" style="display: none;"></circle><text class="markmap-node-text" x="10" dy="-5" text-anchor="start" style="fill-opacity: 1;">Graded Quiz 2</text></g><g class="markmap-node" transform="translate(468.9248046875,-70.625)"><rect class="markmap-node-rect" y="-0.75" x="-1" width="79.0341796875" height="1.5" fill="#ff7f0e"></rect><circle class="markmap-node-circle" cx="77.0341796875" stroke="#ff7f0e" r="4.5" style="display: none;"></circle><text class="markmap-node-text" x="10" dy="-5" text-anchor="start" style="fill-opacity: 1;">Graded Quiz 1</text></g><g class="markmap-node" transform="translate(281.8515625,-48.125)"><rect class="markmap-node-rect" y="-0.75" x="-1" width="129.0732421875" height="1.5" fill="#ff7f0e"></rect><circle class="markmap-node-circle" cx="127.0732421875" stroke="#ff7f0e" r="4.5"></circle><text class="markmap-node-text" x="10" dy="-5" text-anchor="start" style="fill-opacity: 1;">Greetings and Introducing</text></g><g class="markmap-node" transform="translate(149.8125,-48.125)"><rect class="markmap-node-rect" y="-1" x="-1" width="74.0390625" height="2" fill="#ff7f0e"></rect><circle class="markmap-node-circle" cx="72.0390625" stroke="#ff7f0e" r="4.5"></circle><text class="markmap-node-text" x="10" dy="-5" text-anchor="start" style="fill-opacity: 1;">Second week</text></g><g class="markmap-node" transform="translate(433.8857421875,-90.625)"><rect class="markmap-node-rect" y="-0.75" x="-1" width="79.0341796875" height="1.5" fill="#aec7e8"></rect><circle class="markmap-node-circle" cx="77.0341796875" stroke="#aec7e8" r="4.5" style="display: none;"></circle><text class="markmap-node-text" x="10" dy="-5" text-anchor="start" style="fill-opacity: 1;">Graded Quiz 4</text></g><g class="markmap-node" transform="translate(433.8857421875,-105.625)"><rect class="markmap-node-rect" y="-0.75" x="-1" width="79.0341796875" height="1.5" fill="#aec7e8"></rect><circle class="markmap-node-circle" cx="77.0341796875" stroke="#aec7e8" r="4.5" style="display: none;"></circle><text class="markmap-node-text" x="10" dy="-5" text-anchor="start" style="fill-opacity: 1;">Graded Quiz 3</text></g><g class="markmap-node" transform="translate(433.8857421875,-120.625)"><rect class="markmap-node-rect" y="-0.75" x="-1" width="79.0341796875" height="1.5" fill="#aec7e8"></rect><circle class="markmap-node-circle" cx="77.0341796875" stroke="#aec7e8" r="4.5" style="display: none;"></circle><text class="markmap-node-text" x="10" dy="-5" text-anchor="start" style="fill-opacity: 1;">Graded Quiz 2</text></g><g class="markmap-node" transform="translate(433.8857421875,-135.625)"><rect class="markmap-node-rect" y="-0.75" x="-1" width="79.0341796875" height="1.5" fill="#aec7e8"></rect><circle class="markmap-node-circle" cx="77.0341796875" stroke="#aec7e8" r="4.5" style="display: none;"></circle><text class="markmap-node-text" x="10" dy="-5" text-anchor="start" style="fill-opacity: 1;">Graded Quiz 1</text></g><g class="markmap-node" transform="translate(267.3740234375,-113.125)"><rect class="markmap-node-rect" y="-0.75" x="-1" width="108.51171875" height="1.5" fill="#aec7e8"></rect><circle class="markmap-node-circle" cx="106.51171875" stroke="#aec7e8" r="4.5"></circle><text class="markmap-node-text" x="10" dy="-5" text-anchor="start" style="fill-opacity: 1;">The Korean Alphabet</text></g><g class="markmap-node" transform="translate(267.3740234375,-135.625)"><rect class="markmap-node-rect" y="-0.75" x="-1" width="66.255859375" height="1.5" fill="#aec7e8"></rect><circle class="markmap-node-circle" cx="64.255859375" stroke="#aec7e8" r="4.5" style="display: none;"></circle><text class="markmap-node-text" x="10" dy="-5" text-anchor="start" style="fill-opacity: 1;">Introduction</text></g><g class="markmap-node" transform="translate(149.8125,-124.375)"><rect class="markmap-node-rect" y="-1" x="-1" width="59.5615234375" height="2" fill="#aec7e8"></rect><circle class="markmap-node-circle" cx="57.5615234375" stroke="#aec7e8" r="4.5"></circle><text class="markmap-node-text" x="10" dy="-5" text-anchor="start" style="fill-opacity: 1;">First week</text></g><g class="markmap-node" transform="translate(0,0)"><rect class="markmap-node-rect" y="-3" x="-1" width="91.8125" height="6" fill="#1f77b4"></rect><circle class="markmap-node-circle" cx="89.8125" stroke="#1f77b4" r="4.5"></circle><text class="markmap-node-text" x="10" dy="-5" text-anchor="start" style="fill-opacity: 1;">First Step Korean</text></g></g>
</svg>